<?xml version="1.0" encoding="UTF-8" standalone="no"?>
<!DOCTYPE svg PUBLIC "-//W3C//DTD SVG 1.1//EN"
 "http://www.w3.org/Graphics/SVG/1.1/DTD/svg11.dtd">
<!-- Generated by graphviz version 2.40.1 (20161225.0304)
 -->
<!-- Title: limpopo_model Pages: 1 -->
<svg width="956pt" height="368pt"
 viewBox="0.00 0.00 956.01 368.00" xmlns="http://www.w3.org/2000/svg" xmlns:xlink="http://www.w3.org/1999/xlink">
<g id="graph0" class="graph" transform="scale(1 1) rotate(0) translate(4 364)">
<title>limpopo_model</title>
<polygon fill="#ffffff" stroke="transparent" points="-4,4 -4,-364 952.0056,-364 952.0056,4 -4,4"/>
<!-- Rainfall -->
<g id="node1" class="node">
<title>Rainfall</title>
<polygon fill="none" stroke="#000000" points="62.4981,-360 .1667,-360 .1667,-324 62.4981,-324 62.4981,-360"/>
<text text-anchor="middle" x="31.3324" y="-337.8" font-family="Helvetica,sans-Serif" font-size="14.00" fill="#000000">Rainfall</text>
</g>
<!-- EffectiveRainfall -->
<g id="node2" class="node">
<title>EffectiveRainfall</title>
<polygon fill="none" stroke="#000000" points="230.679,-360 110.2074,-360 110.2074,-324 230.679,-324 230.679,-360"/>
<text text-anchor="middle" x="170.4432" y="-337.8" font-family="Helvetica,sans-Serif" font-size="14.00" fill="#000000">Effective Rainfall</text>
</g>
<!-- Rainfall&#45;&gt;EffectiveRainfall -->
<g id="edge1" class="edge">
<title>Rainfall&#45;&gt;EffectiveRainfall</title>
<path fill="none" stroke="#000000" d="M62.5516,-342C73.7865,-342 86.962,-342 100.172,-342"/>
<polygon fill="#000000" stroke="#000000" points="100.2489,-345.5001 110.2489,-342 100.2489,-338.5001 100.2489,-345.5001"/>
</g>
<!-- CropWaterNeed -->
<g id="node5" class="node">
<title>CropWaterNeed</title>
<polygon fill="none" stroke="#000000" points="403.0701,-306 278.2721,-306 278.2721,-270 403.0701,-270 403.0701,-306"/>
<text text-anchor="middle" x="340.6711" y="-283.8" font-family="Helvetica,sans-Serif" font-size="14.00" fill="#000000">Crop Water Need</text>
</g>
<!-- EffectiveRainfall&#45;&gt;CropWaterNeed -->
<g id="edge2" class="edge">
<title>EffectiveRainfall&#45;&gt;CropWaterNeed</title>
<path fill="none" stroke="#000000" d="M227.6002,-323.8686C242.4166,-319.1685 258.5045,-314.065 273.7721,-309.2218"/>
<polygon fill="#000000" stroke="#000000" points="275.1914,-312.4435 283.665,-306.0836 273.0747,-305.7712 275.1914,-312.4435"/>
</g>
<!-- Evapotranspiration -->
<g id="node3" class="node">
<title>Evapotranspiration</title>
<polygon fill="none" stroke="#000000" points="236.6391,-306 104.2473,-306 104.2473,-270 236.6391,-270 236.6391,-306"/>
<text text-anchor="middle" x="170.4432" y="-283.8" font-family="Helvetica,sans-Serif" font-size="14.00" fill="#000000">Evapotranspiration</text>
</g>
<!-- Evapotranspiration&#45;&gt;CropWaterNeed -->
<g id="edge3" class="edge">
<title>Evapotranspiration&#45;&gt;CropWaterNeed</title>
<path fill="none" stroke="#000000" d="M236.7452,-288C246.9674,-288 257.5708,-288 267.9246,-288"/>
<polygon fill="#000000" stroke="#000000" points="268.172,-291.5001 278.1719,-288 268.1719,-284.5001 268.172,-291.5001"/>
</g>
<!-- CropCoefficient -->
<g id="node4" class="node">
<title>CropCoefficient</title>
<polygon fill="none" stroke="#000000" points="242.0007,-252 98.8857,-252 98.8857,-216 242.0007,-216 242.0007,-252"/>
<text text-anchor="middle" x="170.4432" y="-229.8" font-family="Helvetica,sans-Serif" font-size="14.00" fill="#000000">Crop Coefficient (kc)</text>
</g>
<!-- CropCoefficient&#45;&gt;CropWaterNeed -->
<g id="edge4" class="edge">
<title>CropCoefficient&#45;&gt;CropWaterNeed</title>
<path fill="none" stroke="#000000" d="M227.6002,-252.1314C242.4166,-256.8315 258.5045,-261.935 273.7721,-266.7782"/>
<polygon fill="#000000" stroke="#000000" points="273.0747,-270.2288 283.665,-269.9164 275.1914,-263.5565 273.0747,-270.2288"/>
</g>
<!-- TotalCropWaterNeed -->
<g id="node7" class="node">
<title>TotalCropWaterNeed</title>
<polygon fill="none" stroke="#000000" points="613.744,-252 453.9348,-252 453.9348,-216 613.744,-216 613.744,-252"/>
<text text-anchor="middle" x="533.8394" y="-229.8" font-family="Helvetica,sans-Serif" font-size="14.00" fill="#000000">Total Crop Water Need</text>
</g>
<!-- CropWaterNeed&#45;&gt;TotalCropWaterNeed -->
<g id="edge5" class="edge">
<title>CropWaterNeed&#45;&gt;TotalCropWaterNeed</title>
<path fill="none" stroke="#000000" d="M403.1205,-270.5423C421.1429,-265.5042 440.985,-259.9574 459.6467,-254.7405"/>
<polygon fill="#000000" stroke="#000000" points="460.5937,-258.11 469.2822,-252.0469 458.7091,-251.3685 460.5937,-258.11"/>
</g>
<!-- FarmedArea -->
<g id="node6" class="node">
<title>FarmedArea</title>
<polygon fill="none" stroke="#000000" points="389.3462,-252 291.996,-252 291.996,-216 389.3462,-216 389.3462,-252"/>
<text text-anchor="middle" x="340.6711" y="-229.8" font-family="Helvetica,sans-Serif" font-size="14.00" fill="#000000">Farmed Area</text>
</g>
<!-- FarmedArea&#45;&gt;TotalCropWaterNeed -->
<g id="edge6" class="edge">
<title>FarmedArea&#45;&gt;TotalCropWaterNeed</title>
<path fill="none" stroke="#000000" d="M389.4156,-234C405.9951,-234 425.0906,-234 443.8526,-234"/>
<polygon fill="#000000" stroke="#000000" points="443.9197,-237.5001 453.9197,-234 443.9197,-230.5001 443.9197,-237.5001"/>
</g>
<!-- IrrigationNeed -->
<g id="node10" class="node">
<title>IrrigationNeed</title>
<polygon fill="none" stroke="#000000" points="783.1229,-198 675.5405,-198 675.5405,-162 783.1229,-162 783.1229,-198"/>
<text text-anchor="middle" x="729.3317" y="-175.8" font-family="Helvetica,sans-Serif" font-size="14.00" fill="#000000">Irrigation Need</text>
</g>
<!-- TotalCropWaterNeed&#45;&gt;IrrigationNeed -->
<g id="edge7" class="edge">
<title>TotalCropWaterNeed&#45;&gt;IrrigationNeed</title>
<path fill="none" stroke="#000000" d="M599.2073,-215.9437C620.5757,-210.0412 644.2715,-203.4958 665.5236,-197.6254"/>
<polygon fill="#000000" stroke="#000000" points="666.7107,-200.9287 675.4178,-194.8924 664.8469,-194.1814 666.7107,-200.9287"/>
</g>
<!-- RiverFlow -->
<g id="node8" class="node">
<title>RiverFlow</title>
<polygon fill="none" stroke="#000000" points="574.9349,-144 492.7439,-144 492.7439,-108 574.9349,-108 574.9349,-144"/>
<text text-anchor="middle" x="533.8394" y="-121.8" font-family="Helvetica,sans-Serif" font-size="14.00" fill="#000000">River Flow</text>
</g>
<!-- UsableRiverFlow -->
<g id="node13" class="node">
<title>UsableRiverFlow</title>
<polygon fill="none" stroke="#000000" points="793.8795,-117 664.7839,-117 664.7839,-81 793.8795,-81 793.8795,-117"/>
<text text-anchor="middle" x="729.3317" y="-94.8" font-family="Helvetica,sans-Serif" font-size="14.00" fill="#000000">Usable River Flow</text>
</g>
<!-- RiverFlow&#45;&gt;UsableRiverFlow -->
<g id="edge8" class="edge">
<title>RiverFlow&#45;&gt;UsableRiverFlow</title>
<path fill="none" stroke="#000000" d="M575.2983,-120.274C598.2559,-117.1033 627.4976,-113.0646 654.321,-109.3599"/>
<polygon fill="#000000" stroke="#000000" points="655.0376,-112.7943 664.4647,-107.959 654.0799,-105.8601 655.0376,-112.7943"/>
</g>
<!-- EFlow -->
<g id="node9" class="node">
<title>EFlow</title>
<polygon fill="none" stroke="#000000" points="628.7775,-90 438.9013,-90 438.9013,-54 628.7775,-54 628.7775,-90"/>
<text text-anchor="middle" x="533.8394" y="-67.8" font-family="Helvetica,sans-Serif" font-size="14.00" fill="#000000">Environmental Flow (e&#45;flow)</text>
</g>
<!-- EFlow&#45;&gt;UsableRiverFlow -->
<g id="edge9" class="edge">
<title>EFlow&#45;&gt;UsableRiverFlow</title>
<path fill="none" stroke="#000000" d="M628.7223,-85.1045C637.3675,-86.2986 646.0426,-87.4967 654.4768,-88.6616"/>
<polygon fill="#000000" stroke="#000000" points="654.2421,-92.1623 664.6269,-90.0634 655.1998,-85.2281 654.2421,-92.1623"/>
</g>
<!-- CropWaterGap -->
<g id="node16" class="node">
<title>CropWaterGap</title>
<polygon fill="none" stroke="#000000" points="947.9558,-117 830.155,-117 830.155,-81 947.9558,-81 947.9558,-117"/>
<text text-anchor="middle" x="889.0554" y="-94.8" font-family="Helvetica,sans-Serif" font-size="14.00" fill="#000000">Crop Water Gap</text>
</g>
<!-- IrrigationNeed&#45;&gt;CropWaterGap -->
<g id="edge14" class="edge">
<title>IrrigationNeed&#45;&gt;CropWaterGap</title>
<path fill="none" stroke="#000000" d="M765.1768,-161.822C788.6049,-149.941 819.3826,-134.3329 844.3985,-121.6467"/>
<polygon fill="#000000" stroke="#000000" points="845.9942,-124.7618 853.3299,-117.1173 842.8282,-118.5187 845.9942,-124.7618"/>
</g>
<!-- Efficiency -->
<g id="node11" class="node">
<title>Efficiency</title>
<polygon fill="none" stroke="#000000" points="378.5674,-198 302.7748,-198 302.7748,-162 378.5674,-162 378.5674,-198"/>
<text text-anchor="middle" x="340.6711" y="-175.8" font-family="Helvetica,sans-Serif" font-size="14.00" fill="#000000">Efficiency</text>
</g>
<!-- WaterLosses -->
<g id="node12" class="node">
<title>WaterLosses</title>
<polygon fill="none" stroke="#000000" points="584.4097,-198 483.2691,-198 483.2691,-162 584.4097,-162 584.4097,-198"/>
<text text-anchor="middle" x="533.8394" y="-175.8" font-family="Helvetica,sans-Serif" font-size="14.00" fill="#000000">Water Losses</text>
</g>
<!-- Efficiency&#45;&gt;WaterLosses -->
<g id="edge12" class="edge">
<title>Efficiency&#45;&gt;WaterLosses</title>
<path fill="none" stroke="#000000" d="M378.8349,-180C405.6055,-180 441.9676,-180 472.745,-180"/>
<polygon fill="#000000" stroke="#000000" points="472.9466,-183.5001 482.9466,-180 472.9466,-176.5001 472.9466,-183.5001"/>
</g>
<!-- WaterLosses&#45;&gt;IrrigationNeed -->
<g id="edge13" class="edge">
<title>WaterLosses&#45;&gt;IrrigationNeed</title>
<path fill="none" stroke="#000000" d="M584.4378,-180C609.1067,-180 639.0442,-180 665.2881,-180"/>
<polygon fill="#000000" stroke="#000000" points="665.5231,-183.5001 675.5231,-180 665.523,-176.5001 665.5231,-183.5001"/>
</g>
<!-- UsableRiverFlow&#45;&gt;CropWaterGap -->
<g id="edge11" class="edge">
<title>UsableRiverFlow&#45;&gt;CropWaterGap</title>
<path fill="none" stroke="#000000" d="M794.2974,-99C802.7095,-99 811.3503,-99 819.8282,-99"/>
<polygon fill="#000000" stroke="#000000" points="820.0624,-102.5001 830.0623,-99 820.0623,-95.5001 820.0624,-102.5001"/>
</g>
<!-- DamRelease -->
<g id="node14" class="node">
<title>DamRelease</title>
<polygon fill="none" stroke="#000000" points="584.1236,-36 483.5552,-36 483.5552,0 584.1236,0 584.1236,-36"/>
<text text-anchor="middle" x="533.8394" y="-13.8" font-family="Helvetica,sans-Serif" font-size="14.00" fill="#000000">Dam Release</text>
</g>
<!-- DamRelease&#45;&gt;UsableRiverFlow -->
<g id="edge10" class="edge">
<title>DamRelease&#45;&gt;UsableRiverFlow</title>
<path fill="none" stroke="#000000" d="M584.2796,-28.7067C598.9731,-32.7919 614.7726,-38.1597 628.5582,-45 646.474,-53.8896 647.1941,-62.076 664.5582,-72 667.2224,-73.5227 669.9894,-75.0071 672.8132,-76.446"/>
<polygon fill="#000000" stroke="#000000" points="671.4426,-79.671 681.9684,-80.8781 674.4927,-73.3705 671.4426,-79.671"/>
</g>
<!-- Scenarios -->
<g id="node15" class="node">
<title>Scenarios</title>
<polygon fill="none" stroke="#000000" points="768.5663,-63 690.0971,-63 690.0971,-27 768.5663,-27 768.5663,-63"/>
<text text-anchor="middle" x="729.3317" y="-40.8" font-family="Helvetica,sans-Serif" font-size="14.00" fill="#000000">Scenarios</text>
</g>
<!-- Scenarios&#45;&gt;CropWaterGap -->
<g id="edge15" class="edge">
<title>Scenarios&#45;&gt;CropWaterGap</title>
<path fill="none" stroke="#000000" d="M768.814,-58.3483C786.0422,-64.1729 806.6727,-71.1477 825.9412,-77.6621"/>
<polygon fill="#000000" stroke="#000000" points="824.9736,-81.0295 835.5678,-80.9167 827.2155,-74.3983 824.9736,-81.0295"/>
</g>
</g>
</svg>

